<?xml version="1.0" ?><svg height="445.25" id="svg2" version="1.0" width="366.75" xmlns="http://www.w3.org/2000/svg" xmlns:cc="http://web.resource.org/cc/" xmlns:dc="http://purl.org/dc/elements/1.1/" xmlns:inkscape="http://www.inkscape.org/namespaces/inkscape" xmlns:rdf="http://www.w3.org/1999/02/22-rdf-syntax-ns#" xmlns:sodipodi="http://sodipodi.sourceforge.net/DTD/sodipodi-0.dtd" xmlns:svg="http://www.w3.org/2000/svg"><defs id="defs73"/><g id="g4" style="fill:#000000;fill-rule:evenodd;stroke:none;stroke-width:0pt;stroke-linecap:butt;stroke-linejoin:miter;stroke-dasharray:none" transform="translate(187,1)"><path d="M 45,90 C 69,90 89,70 90,46 C 89,20 69,0 45,1 C 20,0 0,20 0,46 C 0,70 20,90 45,90 z " id="path6"/></g><g id="g8" style="fill:#000000;fill-rule:evenodd;stroke:none;stroke-width:0pt;stroke-linecap:butt;stroke-linejoin:miter;stroke-dasharray:none" transform="translate(1,42)"><path d="M 128,13 C 153,0 189,24 189,51 C 189,51 189,136 189,136 C 189,136 230,181 230,181 C 248,202 219,230 198,210 C 198,210 152,159 152,159 C 149,156 147,153 147,145 C 147,145 147,104 147,104 C 147,104 67,148 67,148 C 67,148 67,365 67,365 C 67,414 0,413 1,365 C 1,365 1,108 1,108 C 0,93 6,79 21,71 C 21,71 128,13 128,13 z " id="path10"/></g><g id="g12" style="fill:#000000;fill-rule:evenodd;stroke:none;stroke-width:0pt;stroke-linecap:butt;stroke-linejoin:miter;stroke-dasharray:none" transform="translate(198,147)"><path d="M 97,129 C 97,129 168,129 168,129 C 168,129 168,0 168,0 C 168,0 26,0 26,0 C 7,0 0,20 12,34 C 12,34 97,129 97,129 z " id="path14"/></g><g id="g16" style="fill:#000000;fill-rule:evenodd;stroke:none;stroke-width:0pt;stroke-linecap:butt;stroke-linejoin:miter;stroke-dasharray:none" transform="translate(249,130)"><path d="M 5,11 C 8,11 11,9 11,6 C 11,2 8,0 5,0 C 2,0 0,2 0,6 C 0,9 2,11 5,11 z " id="path18"/></g><g id="g20" style="fill:#000000;fill-rule:evenodd;stroke:none;stroke-width:0pt;stroke-linecap:butt;stroke-linejoin:miter;stroke-dasharray:none" transform="translate(263,131)"><path d="M 6,11 C 9,11 11,8 11,6 C 11,2 9,0 6,0 C 3,0 0,2 1,6 C 0,8 3,11 6,11 z " id="path22"/></g><g id="g24" style="fill:#000000;fill-rule:evenodd;stroke:none;stroke-width:0pt;stroke-linecap:butt;stroke-linejoin:miter;stroke-dasharray:none" transform="translate(264,115)"><path d="M 6,11 C 9,11 11,8 11,5 C 11,2 9,0 6,0 C 3,0 0,2 0,5 C 0,8 3,11 6,11 z " id="path26"/></g><g id="g28" style="fill:#000000;fill-rule:evenodd;stroke:none;stroke-width:0pt;stroke-linecap:butt;stroke-linejoin:miter;stroke-dasharray:none" transform="translate(250,114)"><path d="M 5,11 C 8,11 11,8 11,5 C 11,2 8,0 5,0 C 2,0 0,2 0,5 C 0,8 2,11 5,11 z " id="path30"/></g><g id="g32" style="fill:#000000;fill-rule:evenodd;stroke:none;stroke-width:0pt;stroke-linecap:butt;stroke-linejoin:miter;stroke-dasharray:none" transform="translate(254,98)"><path d="M 6,12 C 9,12 12,9 12,6 C 12,3 9,0 6,0 C 3,0 0,3 0,6 C 0,9 3,12 6,12 z " id="path34"/></g><g id="g36" style="fill:#000000;fill-rule:evenodd;stroke:none;stroke-width:0pt;stroke-linecap:butt;stroke-linejoin:miter;stroke-dasharray:none" transform="translate(272,101)"><path d="M 6,12 C 9,12 11,9 12,6 C 11,3 9,0 6,0 C 2,0 0,3 0,6 C 0,9 2,12 6,12 z " id="path38"/></g><g id="g40" style="fill:#000000;fill-rule:evenodd;stroke:none;stroke-width:0pt;stroke-linecap:butt;stroke-linejoin:miter;stroke-dasharray:none" transform="translate(265,86)"><path d="M 7,12 C 10,12 12,9 13,6 C 12,2 10,0 7,0 C 3,0 0,2 1,6 C 0,9 3,12 7,12 z " id="path42"/></g><g id="g44" style="fill:#000000;fill-rule:evenodd;stroke:none;stroke-width:0pt;stroke-linecap:butt;stroke-linejoin:miter;stroke-dasharray:none" transform="translate(286,95)"><path d="M 6,13 C 9,12 12,10 12,7 C 12,3 9,0 6,0 C 3,0 0,3 0,7 C 0,10 3,12 6,13 z " id="path46"/></g><g id="g48" style="fill:#000000;fill-rule:evenodd;stroke:none;stroke-width:0pt;stroke-linecap:butt;stroke-linejoin:miter;stroke-dasharray:none" transform="translate(279,80)"><path d="M 7,13 C 10,12 12,10 13,7 C 12,3 10,0 7,1 C 3,0 0,3 1,7 C 0,10 3,12 7,13 z " id="path50"/></g><g id="g52" style="fill:#000000;fill-rule:evenodd;stroke:none;stroke-width:0pt;stroke-linecap:butt;stroke-linejoin:miter;stroke-dasharray:none" transform="translate(295,79)"><path d="M 7,14 C 10,13 13,10 14,7 C 13,3 10,0 7,0 C 3,0 0,3 0,7 C 0,10 3,13 7,14 z " id="path54"/></g><g id="g56" style="fill:#000000;fill-rule:evenodd;stroke:none;stroke-width:0pt;stroke-linecap:butt;stroke-linejoin:miter;stroke-dasharray:none" transform="translate(300,100)"><path d="M 7,13 C 11,13 14,10 14,7 C 14,3 11,0 7,0 C 3,0 0,3 0,7 C 0,10 3,13 7,13 z " id="path58"/></g><g id="g60" style="fill:#000000;fill-rule:evenodd;stroke:none;stroke-width:0pt;stroke-linecap:butt;stroke-linejoin:miter;stroke-dasharray:none" transform="translate(310,86)"><path d="M 7,15 C 11,14 14,11 14,8 C 14,4 11,0 7,1 C 3,0 0,4 0,8 C 0,11 3,14 7,15 z " id="path62"/></g><g id="g64" style="fill:#000000;fill-rule:evenodd;stroke:none;stroke-width:0pt;stroke-linecap:butt;stroke-linejoin:miter;stroke-dasharray:none" transform="translate(323,99)"><path d="M 8,15 C 11,15 15,12 15,8 C 15,4 11,0 8,0 C 3,0 0,4 0,8 C 0,12 3,15 8,15 z " id="path66"/></g><g id="g68" style="fill:#000000;fill-rule:evenodd;stroke:none;stroke-width:0pt;stroke-linecap:butt;stroke-linejoin:miter;stroke-dasharray:none" transform="translate(310,112)"><path d="M 8,15 C 12,15 15,12 15,8 C 15,3 12,0 8,0 C 4,0 0,3 1,8 C 0,12 4,15 8,15 z " id="path70"/></g></svg>