<?xml version="1.0" ?><svg viewBox="0 0 64 64" xmlns="http://www.w3.org/2000/svg"><g data-name="Layer 28" id="Layer_28"><path d="M60.35,17,50.18,6.79a.48.48,0,0,0-.7,0L46.9,9.35a.5.5,0,0,0-.14.35.54.54,0,0,0,.14.36L51.84,15H45.9A16.17,16.17,0,0,0,32,22.88,16.17,16.17,0,0,0,18.1,15H12.16l4.94-4.93a.54.54,0,0,0,.14-.36.5.5,0,0,0-.14-.35L14.52,6.79a.48.48,0,0,0-.7,0L3.65,17a.47.47,0,0,0-.15.35.49.49,0,0,0,.15.36L13.82,27.83a.51.51,0,0,0,.35.15.55.55,0,0,0,.36-.15l2.57-2.57a.51.51,0,0,0,0-.71l-4.94-4.93H18.1A11.6,11.6,0,0,1,29.68,31.21V55.45a.5.5,0,0,0,.5.5h3.64a.5.5,0,0,0,.5-.5V31.21A11.6,11.6,0,0,1,45.9,19.62h5.94L46.9,24.55a.51.51,0,0,0,0,.71l2.57,2.57a.51.51,0,0,0,.71,0l8.88-8.89,1.29-1.28a.49.49,0,0,0,.15-.36A.47.47,0,0,0,60.35,17Z"/></g></svg>